# File created by Blade
# Date/Time:  Thu Jan 22 16:21:39 2015
# Frame Rate: 120.000 fps
#------------------------------------------------------
:FULLY-SPECIFIED
:DEGREES
1992
root 0.929966 37.162829 4.873102 -10.275514 -16.272600 0.537007
RightUpLeg 15.301969 -1.780340 3.960436
RightLeg -2.064050 -0.000000 0.000000
RightFoot -10.485967 -8.174769 12.483745
RightToeBase 13.716092 -0.000000 -0.000000
LeftUpLeg -7.159415 -13.234739 9.465467
LeftLeg 45.877208 -0.000000 -0.000000
LeftFoot -5.160794 26.210424 -24.893247
LeftToeBase 2.463349 -0.000000 -0.000000
Spine 16.156148 9.791810 2.536814
RightShoulder 5.047149 -12.850913 -26.665785
RightArm 36.345178 11.209554 47.208393
RightForeArm 4.947553 0.000000 61.642235
RightHand 7.445064 -0.000000 -9.519339
RightHandThumb1 -24.326973 -0.000000 -32.862282
LeftShoulder -30.823868 36.161538 5.930446
LeftArm 54.462686 -48.438799 -68.639619
LeftForeArm 37.016384 0.000000 13.118682
LeftHand -17.519179 -0.000000 3.277547
LeftHandThumb1 -26.253704 0.000000 33.147579
Head 3.930641 17.369059 -5.330134
1993
root 0.884019 37.172162 4.842287 -10.517507 -16.495554 0.685038
RightUpLeg 15.448189 -1.919831 3.830139
RightLeg -2.014174 -0.000000 0.000000
RightFoot -10.452649 -7.745848 12.688513
RightToeBase 13.837587 -0.000000 -0.000000
LeftUpLeg -8.243741 -13.865638 9.208405
LeftLeg 47.990364 -0.000000 -0.000000
LeftFoot -4.701601 25.685305 -24.400369
LeftToeBase 3.084493 -0.000000 -0.000000
Spine 16.483134 10.261749 2.669885
RightShoulder 5.348929 -12.911410 -26.777320
RightArm 36.989442 10.583587 47.062550
RightForeArm 4.712202 -0.000000 62.019306
RightHand 7.529080 -0.000000 -9.280327
RightHandThumb1 -24.326973 -0.000000 -32.862282
LeftShoulder -30.853685 36.094244 5.875487
LeftArm 54.585775 -48.475001 -69.006604
LeftForeArm 37.284483 -0.000000 13.225162
LeftHand -17.507521 -0.000000 3.060355
LeftHandThumb1 -26.253704 0.000000 33.147579
Head 3.903428 17.336397 -5.642193
1994
root 0.840997 37.180217 4.817673 -10.786611 -16.733327 0.844395
RightUpLeg 15.649542 -2.062113 3.675153
RightLeg -2.027987 -0.000000 0.000000
RightFoot -10.410689 -7.263641 13.051605
RightToeBase 13.967486 -0.000000 -0.000000
LeftUpLeg -9.292807 -14.418311 8.948912
LeftLeg 50.072435 -0.000000 -0.000000
LeftFoot -4.267714 24.641910 -24.072391
LeftToeBase 3.560684 -0.000000 -0.000000
Spine 16.837117 10.806236 2.832878
RightShoulder 5.572843 -13.020214 -26.888323
RightArm 37.682634 9.932881 46.897496
RightForeArm 4.538901 -0.000000 62.345938
RightHand 7.541504 -0.000000 -8.963594
RightHandThumb1 -24.326973 -0.000000 -32.862282
LeftShoulder -30.878556 36.116275 5.765510
LeftArm 54.643658 -48.407494 -69.163850
LeftForeArm 37.160383 0.000000 13.348711
LeftHand -17.535531 -0.000000 2.569387
LeftHandThumb1 -26.253704 0.000000 33.147579
Head 3.862186 17.281114 -5.916516
1995
root 0.798989 37.189729 4.793216 -11.023232 -17.002027 0.986476
RightUpLeg 15.860174 -2.047568 3.579446
RightLeg -2.116118 -0.000000 0.000000
RightFoot -10.365456 -6.977393 13.320495
RightToeBase 14.357335 -0.000000 -0.000000
LeftUpLeg -10.381326 -14.911867 8.730112
LeftLeg 52.136337 -0.000000 -0.000000
LeftFoot -3.919871 23.398249 -24.119113
LeftToeBase 3.488532 -0.000000 -0.000000
Spine 17.141969 11.359735 3.024196
RightShoulder 5.797726 -13.140514 -26.989532
RightArm 38.432170 9.234520 46.682667
RightForeArm 4.393327 -0.000000 62.574583
RightHand 7.696674 -0.000000 -8.966284
RightHandThumb1 -24.326973 -0.000000 -32.862282
LeftShoulder -30.922974 36.137110 5.618052
LeftArm 54.843310 -48.427071 -69.461653
LeftForeArm 37.310213 -0.000000 13.358681
LeftHand -17.452994 -0.000000 2.682476
LeftHandThumb1 -26.253704 0.000000 33.147579
Head 3.885436 17.275377 -6.119809
1996
root 0.757056 37.199862 4.771485 -11.275047 -17.316685 1.140120
RightUpLeg 16.084905 -1.914537 3.497956
RightLeg -2.196187 -0.000000 0.000000
RightFoot -10.406693 -6.788882 13.615694
RightToeBase 14.819834 -0.000000 -0.000000
LeftUpLeg -11.439892 -15.297686 8.510757
LeftLeg 54.117645 -0.000000 -0.000000
LeftFoot -3.690177 22.064682 -24.399287
LeftToeBase 3.520805 -0.000000 -0.000000
Spine 17.467764 11.950780 3.220965
RightShoulder 6.012548 -13.201328 -27.073540
RightArm 39.170197 8.511827 46.479974
RightForeArm 4.143033 -0.000000 62.763927
RightHand 7.699386 -0.000000 -8.825019
RightHandThumb1 -24.326973 -0.000000 -32.862282
LeftShoulder -30.947159 36.088604 5.512238
LeftArm 54.802117 -48.404296 -69.583820
LeftForeArm 37.376218 0.000000 13.464585
LeftHand -17.268383 -0.000000 2.826130
LeftHandThumb1 -26.253704 0.000000 33.147579
Head 3.895030 17.260896 -6.363248
1997
root 0.720538 37.210226 4.755803 -11.511926 -17.554492 1.270895
RightUpLeg 16.334133 -2.008267 3.361465
RightLeg -2.334912 -0.000000 0.000000
RightFoot -10.359984 -6.333036 14.179782
RightToeBase 15.332672 -0.000000 -0.000000
LeftUpLeg -12.552335 -15.671879 8.284944
LeftLeg 56.097403 -0.000000 -0.000000
LeftFoot -3.610923 20.838343 -24.747064
LeftToeBase 3.765097 -0.000000 -0.000000
Spine 17.756691 12.425082 3.456370
RightShoulder 6.257772 -13.270942 -27.187271
RightArm 39.945780 7.808150 46.304395
RightForeArm 3.797480 0.000000 62.918499
RightHand 7.739836 -0.000000 -8.376723
RightHandThumb1 -24.326973 -0.000000 -32.862282
LeftShoulder -31.027503 36.100941 5.323327
LeftArm 54.828527 -48.383663 -69.730176
LeftForeArm 37.472301 -0.000000 13.503250
LeftHand -17.315202 -0.000000 2.955529
LeftHandThumb1 -26.253704 0.000000 33.147579
Head 3.938263 17.289135 -6.642264
1998
root 0.686504 37.221979 4.737018 -11.735099 -17.858535 1.414986
RightUpLeg 16.542888 -1.949902 3.253917
RightLeg -2.444816 -0.000000 0.000000
RightFoot -10.280349 -6.043704 14.523293
RightToeBase 15.638252 -0.000000 -0.000000
LeftUpLeg -13.662553 -15.892202 8.076797
LeftLeg 57.994244 -0.000000 -0.000000
LeftFoot -3.562632 19.662846 -25.063896
LeftToeBase 3.700078 -0.000000 -0.000000
Spine 18.044922 12.978492 3.686472
RightShoulder 6.487754 -13.199685 -27.251843
RightArm 40.600377 7.004591 46.088783
RightForeArm 3.537391 0.000000 63.050227
RightHand 7.747182 -0.000000 -8.207458
RightHandThumb1 -24.326973 -0.000000 -32.862282
LeftShoulder -31.174917 36.149119 5.077418
LeftArm 54.880444 -48.308445 -69.806228
LeftForeArm 37.378374 -0.000000 13.551139
LeftHand -17.338213 -0.000000 2.999401
LeftHandThumb1 -26.253704 0.000000 33.147579
Head 3.969184 17.299925 -6.867578
1999
root 0.655732 37.234433 4.717805 -11.938888 -18.168037 1.549249
RightUpLeg 16.730686 -1.932610 3.140514
RightLeg -2.546211 -0.000000 0.000000
RightFoot -10.174125 -5.712169 14.805421
RightToeBase 15.892709 -0.000000 -0.000000
LeftUpLeg -14.784437 -16.039410 7.869391
LeftLeg 59.805578 -0.000000 -0.000000
LeftFoot -3.551892 18.643045 -25.291958
LeftToeBase 3.473937 -0.000000 -0.000000
Spine 18.317521 13.497225 3.942490
RightShoulder 6.756955 -13.150478 -27.346957
RightArm 41.287810 6.245326 45.900150
RightForeArm 3.139330 -0.000000 63.154788
RightHand 7.766275 -0.000000 -7.891892
RightHandThumb1 -24.326973 -0.000000 -32.862282
LeftShoulder -31.366723 36.205615 4.831232
LeftArm 54.911850 -48.180130 -69.919887
LeftForeArm 37.278751 -0.000000 13.604747
LeftHand -17.952900 -0.000000 3.212365
LeftHandThumb1 -26.253704 0.000000 33.147579
Head 3.994138 17.326315 -7.154679
2000
root 0.625137 37.248298 4.708173 -12.162464 -18.468917 1.700379
RightUpLeg 16.949851 -2.041369 2.965767
RightLeg -2.648833 -0.000000 0.000000
RightFoot -10.051631 -5.213039 15.085644
RightToeBase 16.178700 -0.000000 -0.000000
LeftUpLeg -15.867233 -16.124605 7.633584
LeftLeg 61.525403 -0.000000 -0.000000
LeftFoot -3.520754 17.869772 -25.374589
LeftToeBase 3.620455 -0.000000 -0.000000
Spine 18.578808 14.050948 4.198226
RightShoulder 7.005347 -13.191307 -27.423778
RightArm 42.007061 5.523903 45.729831
RightForeArm 2.749861 0.000000 63.226774
RightHand 7.796304 -0.000000 -7.521527
RightHandThumb1 -24.326973 -0.000000 -32.862282
LeftShoulder -31.429760 36.219847 4.654794
LeftArm 54.845173 -48.167526 -70.012278
LeftForeArm 37.303666 -0.000000 13.686354
LeftHand -17.714821 0.000000 2.946118
LeftHandThumb1 -26.253704 0.000000 33.147579
Head 4.072640 17.311130 -7.409395
2001
root 0.597369 37.260967 4.686677 -12.340180 -18.828666 1.854818
RightUpLeg 17.104941 -1.915938 2.865487
RightLeg -2.770059 -0.000000 0.000000
RightFoot -9.999680 -4.964340 15.434452
RightToeBase 16.524103 -0.000000 -0.000000
LeftUpLeg -17.007792 -16.075162 7.426888
LeftLeg 63.175177 -0.000000 -0.000000
LeftFoot -3.594395 17.338612 -25.844843
LeftToeBase 3.384760 -0.000000 -0.000000
Spine 18.833162 14.637910 4.451505
RightShoulder 7.277604 -13.199753 -27.523195
RightArm 42.722926 4.810190 45.559311
RightForeArm 2.317728 -0.000000 63.287830
RightHand 7.723533 -0.000000 -7.221946
RightHandThumb1 -24.326973 -0.000000 -32.862282
LeftShoulder -31.527756 36.206031 4.499132
LeftArm 54.755468 -48.134498 -70.132044
LeftForeArm 37.357871 -0.000000 13.755683
LeftHand -17.781190 -0.000000 2.931745
LeftHandThumb1 -26.253704 0.000000 33.147579
Head 4.063999 17.331546 -7.689049
2002
root 0.571951 37.274023 4.668467 -12.492650 -19.117456 1.981997
RightUpLeg 17.186088 -2.089439 2.700359
RightLeg -2.771990 -0.000000 0.000000
RightFoot -9.893796 -4.412286 15.713655
RightToeBase 16.646943 -0.000000 -0.000000
LeftUpLeg -18.186929 -16.031786 7.233284
LeftLeg 64.755549 -0.000000 -0.000000
LeftFoot -3.547213 17.063410 -25.966585
LeftToeBase 3.346518 -0.000000 -0.000000
Spine 19.051181 15.151700 4.712840
RightShoulder 7.535204 -13.280316 -27.608046
RightArm 43.467295 4.130130 45.390916
RightForeArm 1.950701 -0.000000 63.346605
RightHand 7.702496 -0.000000 -6.898054
RightHandThumb1 -24.326973 -0.000000 -32.862282
LeftShoulder -31.673322 36.213273 4.297731
LeftArm 54.736454 -48.112474 -70.276652
LeftForeArm 37.506408 -0.000000 13.787890
LeftHand -18.008321 -0.000000 3.521830
LeftHandThumb1 -26.253704 0.000000 33.147579
Head 4.077613 17.302342 -7.952804
